<svg xmlns="http://www.w3.org/2000/svg" xmlns:xlink="http://www.w3.org/1999/xlink" width="1200" zoomAndPan="magnify" viewBox="0 0 900 299.999988" height="400" preserveAspectRatio="xMidYMid meet" version="1.0"><defs><g/><clipPath id="5f81805f31"><rect x="0" width="488" y="0" height="47"/></clipPath></defs><path fill="#000000" d="M 181.691406 96.535156 L 113.226562 150.714844 C 113.089844 150.824219 112.945312 150.839844 112.789062 150.765625 C 112.632812 150.691406 112.554688 150.566406 112.554688 150.394531 L 112.554688 132.121094 C 112.554688 132.042969 112.582031 131.980469 112.644531 131.933594 L 181.351562 77.566406 C 181.476562 77.46875 181.617188 77.417969 181.777344 77.417969 C 181.9375 77.417969 182.078125 77.464844 182.203125 77.5625 L 250.695312 131.429688 C 250.957031 131.632812 251.085938 131.898438 251.085938 132.230469 C 251.078125 136.871094 251.070312 140.816406 251.0625 144.070312 C 251.058594 145.9375 250.566406 147.636719 249.585938 149.175781 C 249.542969 149.25 249.484375 149.261719 249.414062 149.207031 L 182.007812 96.535156 C 181.902344 96.453125 181.796875 96.453125 181.691406 96.535156 Z M 181.691406 96.535156 " fill-opacity="1" fill-rule="nonzero"/><path fill="#000000" d="M 198.308594 182.34375 C 198.246094 182.394531 198.175781 182.410156 198.101562 182.390625 C 198.023438 182.371094 197.972656 182.324219 197.9375 182.253906 C 197.660156 181.640625 197.40625 181.171875 197.175781 180.851562 C 196.339844 179.683594 194.847656 177.480469 192.703125 174.246094 C 192.582031 174.066406 192.5 173.871094 192.453125 173.660156 C 192.039062 171.835938 192 168.964844 193.246094 167.265625 C 193.980469 166.273438 194.601562 165.585938 195.113281 165.207031 C 198.542969 162.675781 200.394531 161.355469 203.144531 158.765625 C 206.691406 155.421875 209.628906 152.082031 211.914062 147.71875 C 212.363281 146.863281 212.726562 145.984375 213.003906 145.082031 C 213.484375 143.523438 213.765625 142.613281 213.84375 142.351562 C 213.972656 141.910156 213.992188 140.859375 213.898438 139.195312 C 213.886719 138.929688 213.828125 138.675781 213.71875 138.433594 C 213.65625 138.289062 213.40625 137.550781 212.972656 136.21875 C 212.359375 134.34375 211.183594 132.6875 209.867188 131.320312 C 208.808594 130.226562 207.550781 129.535156 206.085938 129.25 C 204.90625 129.015625 203.667969 129.667969 202.390625 130.1875 C 202.253906 130.242188 202.117188 130.253906 201.972656 130.21875 C 201.828125 130.183594 201.710938 130.109375 201.617188 129.996094 C 199.992188 128.0625 198.472656 126.152344 197.058594 124.261719 C 196.746094 123.839844 195.921875 123.445312 195.367188 123.097656 C 194.558594 122.597656 193.730469 122.515625 192.882812 122.855469 C 192.183594 123.132812 191.425781 123.597656 190.601562 124.25 C 186.558594 127.46875 179.003906 133.558594 167.941406 142.53125 C 159.257812 149.570312 150.464844 156.6875 141.5625 163.878906 C 139.808594 165.296875 138.847656 166.253906 138.679688 166.753906 C 138.367188 167.664062 138.304688 168.597656 138.488281 169.554688 C 138.582031 170.042969 139.058594 170.824219 139.914062 171.894531 C 141.789062 174.242188 143.890625 177.035156 146.222656 180.277344 C 146.722656 180.976562 147.554688 182.125 148.246094 182.539062 C 150.183594 183.703125 152.277344 183 153.886719 181.648438 C 155.648438 180.164062 157.652344 178.523438 159.894531 176.730469 C 168.109375 170.167969 176.132812 163.703125 183.96875 157.335938 C 184.785156 156.671875 185.816406 155.855469 187.0625 154.886719 C 188.164062 154.03125 189.195312 153.210938 190.152344 152.433594 C 195.484375 148.074219 200.386719 144.058594 204.867188 140.382812 C 206.355469 139.160156 206.765625 137.65625 206.09375 135.878906 C 206.046875 135.746094 205.976562 135.628906 205.894531 135.519531 L 203.398438 132.367188 C 203.351562 132.308594 203.320312 132.242188 203.308594 132.164062 C 203.296875 132.089844 203.304688 132.015625 203.332031 131.945312 C 203.359375 131.875 203.402344 131.816406 203.460938 131.765625 C 203.515625 131.71875 203.582031 131.6875 203.660156 131.671875 C 204.886719 131.445312 206.609375 131.21875 207.578125 132.03125 C 208.792969 133.050781 209.574219 134.199219 210.386719 135.621094 C 210.945312 136.597656 211.289062 137.476562 211.417969 138.25 C 211.8125 140.679688 211.652344 142.820312 210.933594 144.671875 C 209.300781 148.898438 206.121094 153.671875 202.238281 156.890625 C 201.65625 157.375 200.863281 158.085938 199.859375 159.03125 C 198.160156 160.636719 195.640625 162.238281 194 163.535156 C 192.886719 164.414062 192.042969 165.308594 191.472656 166.214844 C 191.078125 166.84375 190.636719 167.96875 190.152344 169.59375 C 189.550781 171.617188 190.152344 173.851562 191.226562 175.664062 C 192.210938 177.328125 193.890625 179.808594 196.265625 183.097656 C 196.5 183.421875 196.402344 183.761719 195.976562 184.109375 C 194.808594 185.066406 193.835938 185.882812 193.0625 186.5625 C 192.992188 186.621094 192.984375 186.6875 193.042969 186.761719 L 196.179688 190.726562 C 196.214844 190.769531 196.230469 190.820312 196.21875 190.878906 C 196.207031 190.933594 196.175781 190.976562 196.125 191.003906 C 192.359375 193.085938 188.546875 194.9375 184.691406 196.554688 C 183.679688 196.984375 183.03125 197.378906 182.144531 197.632812 C 180.972656 197.976562 180.042969 198.621094 178.890625 198.882812 C 177.988281 199.089844 177.210938 199.355469 176.558594 199.683594 C 175.648438 200.140625 174.972656 200.183594 174.007812 200.441406 C 173.835938 200.488281 173.671875 200.550781 173.507812 200.625 C 172.671875 201.019531 171.789062 201.320312 170.871094 201.519531 C 169.199219 201.878906 168.003906 202.597656 166.378906 202.730469 C 165.519531 202.800781 164.425781 203.050781 163.097656 203.488281 C 161.464844 204.03125 159.097656 204.019531 157.648438 204.359375 C 153.757812 205.28125 150.722656 205.347656 146.074219 205.324219 C 143.121094 205.308594 141.253906 205.367188 138.757812 204.695312 C 137.148438 204.257812 135.992188 203.984375 135.285156 203.882812 C 135.214844 203.871094 135.148438 203.851562 135.085938 203.824219 L 131.988281 202.4375 C 131.929688 202.414062 131.878906 202.386719 131.828125 202.347656 L 130.234375 201.207031 C 130.179688 201.164062 130.128906 201.113281 130.089844 201.054688 C 129.554688 200.292969 129.285156 199.488281 129.28125 198.632812 C 129.273438 175.253906 129.277344 156.574219 129.296875 142.59375 C 129.296875 142.363281 129.386719 142.179688 129.5625 142.035156 L 181.453125 100.972656 C 181.558594 100.890625 181.664062 100.890625 181.769531 100.972656 C 188.035156 105.804688 191.171875 108.226562 191.1875 108.238281 C 194.273438 110.628906 196.878906 112.675781 199.003906 114.378906 C 199.097656 114.453125 199.578125 114.820312 200.4375 115.480469 C 206.046875 119.78125 216.601562 127.984375 232.105469 140.089844 C 232.941406 140.742188 234.203125 141.746094 234.390625 142.929688 C 234.453125 143.320312 234.476562 145.742188 234.460938 150.203125 C 234.453125 151.855469 233.804688 152.441406 232.59375 153.765625 C 231.546875 154.914062 230.546875 155.921875 229.59375 156.789062 C 222.136719 163.582031 215.238281 169.78125 208.886719 175.394531 C 208.484375 175.753906 208.054688 176.089844 207.597656 176.402344 C 207.539062 176.441406 207.507812 176.496094 207.496094 176.570312 C 207.484375 176.640625 207.503906 176.703125 207.546875 176.761719 L 210.667969 180.703125 C 210.757812 180.816406 210.746094 180.917969 210.628906 181.003906 L 205.210938 184.941406 C 205.101562 185.023438 204.976562 185.058594 204.839844 185.050781 C 204.703125 185.042969 204.582031 184.988281 204.484375 184.894531 C 203.101562 183.550781 201.910156 182.1875 200.917969 180.800781 C 200.851562 180.710938 200.765625 180.65625 200.65625 180.640625 C 200.542969 180.628906 200.445312 180.652344 200.355469 180.722656 Z M 198.308594 182.34375 " fill-opacity="1" fill-rule="nonzero"/><path fill="#000000" d="M 237.75 152.214844 C 238.011719 152.550781 238.171875 152.824219 238.503906 153.003906 C 239.308594 153.433594 240.214844 153.867188 241.234375 154.300781 C 241.464844 154.398438 241.707031 154.453125 241.957031 154.46875 C 243.976562 154.578125 245.339844 154.558594 246.050781 154.414062 C 246.855469 154.253906 247.921875 153.742188 249.257812 152.882812 C 249.996094 152.40625 250.949219 151.511719 252.113281 150.191406 C 257.890625 143.640625 263.4375 137.332031 268.75 131.257812 C 270.003906 129.828125 270.894531 128.929688 271.421875 128.570312 C 272.339844 127.945312 273.5 127.441406 274.898438 127.070312 C 275.863281 126.808594 277 126.875 278.3125 127.273438 C 279.535156 127.644531 280.492188 128.25 281.191406 129.09375 C 282.417969 130.582031 282.941406 132.394531 282.765625 134.539062 C 282.695312 135.457031 282.515625 136.167969 282.238281 136.679688 C 281.394531 138.238281 280.488281 139.5 279.523438 140.457031 C 279.152344 140.832031 277.957031 141.832031 275.941406 143.464844 C 270.234375 148.09375 264.828125 152.4375 259.722656 156.5 C 258.390625 157.558594 257.074219 158.96875 256.222656 159.847656 C 256.085938 159.988281 255.6875 160.5625 255.023438 161.578125 C 254.953125 161.683594 254.902344 161.796875 254.871094 161.917969 L 253.976562 165.449219 C 253.949219 165.558594 253.949219 165.671875 253.96875 165.78125 L 254.785156 169.800781 C 254.839844 170.074219 254.949219 170.320312 255.109375 170.546875 C 255.699219 171.363281 256.089844 172.144531 256.289062 172.890625 C 256.320312 173.003906 256.320312 173.117188 256.292969 173.226562 C 256.15625 173.773438 256.007812 174.121094 255.851562 174.261719 C 254.691406 175.316406 253.707031 176.304688 252.894531 177.226562 C 252.804688 177.328125 252.710938 177.328125 252.617188 177.230469 L 233.1875 156.6875 C 233.109375 156.605469 233.074219 156.507812 233.078125 156.394531 C 233.082031 156.28125 233.125 156.1875 233.210938 156.113281 L 237.585938 152.199219 C 237.644531 152.144531 237.703125 152.152344 237.75 152.214844 Z M 277.992188 131.9375 C 277.703125 131.644531 277.351562 131.433594 276.933594 131.304688 C 276.519531 131.175781 276.070312 131.144531 275.59375 131.203125 C 275.113281 131.261719 274.640625 131.414062 274.171875 131.652344 C 273.703125 131.886719 273.277344 132.199219 272.890625 132.578125 C 272.503906 132.957031 272.1875 133.378906 271.941406 133.84375 C 271.695312 134.308594 271.535156 134.777344 271.46875 135.253906 C 271.398438 135.734375 271.425781 136.179688 271.546875 136.597656 C 271.667969 137.019531 271.871094 137.375 272.160156 137.667969 C 272.453125 137.964844 272.804688 138.175781 273.222656 138.304688 C 273.636719 138.429688 274.085938 138.464844 274.5625 138.40625 C 275.042969 138.34375 275.515625 138.195312 275.984375 137.957031 C 276.453125 137.71875 276.878906 137.410156 277.265625 137.03125 C 277.652344 136.652344 277.96875 136.230469 278.214844 135.765625 C 278.460938 135.300781 278.617188 134.832031 278.6875 134.351562 C 278.753906 133.875 278.730469 133.425781 278.609375 133.007812 C 278.488281 132.589844 278.285156 132.234375 277.992188 131.9375 Z M 277.992188 131.9375 " fill-opacity="1" fill-rule="nonzero"/><path fill="#000000" d="M 224.625 164.632812 L 231.671875 157.964844 C 231.761719 157.882812 231.867188 157.84375 231.988281 157.847656 C 232.109375 157.851562 232.210938 157.902344 232.292969 157.992188 L 250.8125 178.699219 C 250.886719 178.785156 250.925781 178.882812 250.921875 179 C 250.917969 179.113281 250.875 179.214844 250.792969 179.296875 L 244.484375 185.609375 C 244.398438 185.695312 244.292969 185.738281 244.171875 185.738281 C 244.050781 185.734375 243.945312 185.691406 243.863281 185.601562 L 224.605469 165.246094 C 224.523438 165.160156 224.484375 165.054688 224.488281 164.9375 C 224.492188 164.816406 224.539062 164.714844 224.625 164.632812 Z M 224.625 164.632812 " fill-opacity="1" fill-rule="nonzero"/><path fill="#000000" d="M 231.140625 184.105469 C 231.183594 184.0625 231.179688 184.015625 231.136719 183.972656 C 231.089844 183.929688 231.046875 183.929688 230.996094 183.96875 C 230.019531 184.835938 229.214844 185.675781 228.007812 186.613281 C 226.179688 188.03125 224.769531 189.199219 223.765625 190.113281 C 223.542969 190.320312 223.296875 190.476562 223.03125 190.582031 C 222.84375 190.65625 222.6875 190.609375 222.570312 190.441406 C 221.855469 189.429688 220.867188 188.582031 220.183594 187.691406 C 220.125 187.617188 219.285156 186.628906 217.660156 184.71875 C 217.4375 184.457031 217.222656 184.375 217.019531 184.167969 C 216.933594 184.085938 216.910156 183.988281 216.949219 183.875 L 217.410156 182.523438 C 217.4375 182.441406 217.417969 182.371094 217.355469 182.3125 C 217.292969 182.253906 217.222656 182.242188 217.140625 182.277344 L 216.109375 182.722656 C 215.875 182.824219 215.667969 182.78125 215.496094 182.585938 L 211.132812 177.707031 C 211.054688 177.621094 211.019531 177.523438 211.023438 177.410156 C 211.03125 177.296875 211.074219 177.199219 211.15625 177.117188 L 222.617188 166.277344 C 222.675781 166.222656 222.746094 166.195312 222.824219 166.199219 C 222.90625 166.203125 222.972656 166.230469 223.027344 166.289062 L 242.933594 187.332031 C 242.992188 187.398438 242.992188 187.464844 242.933594 187.53125 L 231.878906 199.664062 C 231.808594 199.738281 231.722656 199.777344 231.617188 199.78125 C 231.511719 199.78125 231.421875 199.742188 231.351562 199.667969 L 224.546875 192.476562 C 224.433594 192.351562 224.429688 192.226562 224.535156 192.097656 Z M 231.140625 184.105469 " fill-opacity="1" fill-rule="nonzero"/><path fill="#000000" d="M 123.347656 176.769531 C 123.398438 176.773438 123.433594 176.792969 123.457031 176.835938 C 123.480469 176.878906 123.480469 176.921875 123.457031 176.964844 L 122.5625 178.441406 C 122.449219 178.625 122.355469 178.816406 122.285156 179.019531 L 119.792969 185.851562 C 119.765625 185.933594 119.746094 186.015625 119.734375 186.101562 C 119.558594 187.503906 119.527344 188.582031 119.269531 189.78125 C 118.925781 191.402344 118.933594 193.582031 119.320312 195.351562 C 119.492188 196.15625 119.625 196.960938 119.710938 197.773438 C 119.738281 198.042969 119.808594 198.296875 119.917969 198.542969 C 120.738281 200.351562 121.203125 201.347656 121.308594 201.53125 C 123.046875 204.558594 125.488281 206.738281 128.640625 208.074219 C 129.730469 208.535156 130.433594 208.835938 130.753906 208.980469 C 130.988281 209.085938 131.234375 209.160156 131.488281 209.210938 C 133.0625 209.503906 134.433594 209.804688 135.601562 210.105469 C 136.71875 210.394531 137.785156 210.554688 138.804688 210.578125 C 142.703125 210.679688 146.367188 210.671875 149.792969 210.554688 C 152.921875 210.449219 156.558594 209.34375 159.289062 209.226562 C 159.34375 209.222656 159.394531 209.214844 159.449219 209.199219 L 170.117188 206.445312 C 170.121094 206.441406 170.125 206.441406 170.125 206.441406 C 171.085938 206.050781 172.09375 205.71875 173.140625 205.441406 C 174.386719 205.113281 175.332031 204.664062 176.316406 204.355469 C 177.566406 203.964844 178.320312 203.699219 178.574219 203.5625 C 179.496094 203.0625 180.492188 202.816406 181.535156 202.378906 C 188.859375 199.308594 195.949219 195.644531 202.796875 191.394531 C 204.023438 190.636719 205.242188 189.878906 206.460938 189.117188 C 208.722656 187.710938 210.996094 186.128906 213.28125 184.382812 C 213.390625 184.296875 213.515625 184.261719 213.652344 184.269531 C 213.789062 184.277344 213.90625 184.328125 214.003906 184.421875 C 215.046875 185.4375 215.363281 185.796875 216.539062 186.691406 C 217.117188 187.128906 217.730469 187.769531 218.382812 188.613281 C 218.453125 188.707031 218.453125 188.796875 218.378906 188.890625 C 218.011719 189.34375 217.699219 189.679688 217.4375 189.898438 C 203.601562 201.410156 188.347656 210.339844 171.671875 216.6875 C 170.625 217.085938 170.085938 217.292969 170.046875 217.3125 C 169.503906 217.582031 168.714844 217.855469 167.675781 218.132812 C 166.410156 218.472656 165.410156 219.035156 164.1875 219.273438 C 162.902344 219.523438 161.90625 219.789062 161.199219 220.0625 C 160.457031 220.351562 159.628906 220.554688 158.707031 220.667969 C 157.605469 220.804688 156.410156 221.097656 155.121094 221.542969 C 154.730469 221.679688 154.328125 221.769531 153.917969 221.816406 C 151.152344 222.117188 147.996094 222.855469 144.765625 222.867188 C 138.347656 222.898438 134.488281 222.890625 133.183594 222.847656 C 131.292969 222.789062 129.027344 222.234375 126.90625 221.976562 C 125.644531 221.824219 124.886719 221.703125 124.640625 221.621094 C 122.71875 220.980469 121.25 220.726562 119.617188 220.082031 C 115.144531 218.328125 111.140625 215.796875 108.417969 212.390625 C 107.914062 211.765625 107.226562 210.546875 106.351562 208.738281 C 105.664062 207.328125 105.554688 205.910156 105.179688 203.914062 C 104.996094 202.933594 105.058594 201.664062 105.375 200.101562 C 105.664062 198.664062 105.742188 197.390625 106.238281 196.15625 C 107.609375 192.761719 109.273438 189.765625 111.660156 187.066406 C 115.003906 183.289062 118.910156 179.527344 123.125 176.835938 C 123.167969 176.808594 123.210938 176.792969 123.261719 176.78125 C 123.304688 176.773438 123.335938 176.769531 123.347656 176.769531 Z M 123.347656 176.769531 " fill-opacity="1" fill-rule="nonzero"/><g fill="#000000" fill-opacity="1"><g transform="translate(304.274672, 196.373554)"><g><path d="M 47.625 -44.09375 L 28.53125 0 L 18.453125 0 L -0.5625 -44.09375 L 10.453125 -44.09375 L 23.875 -12.59375 L 37.484375 -44.09375 Z M 47.625 -44.09375 "/></g></g></g><g fill="#000000" fill-opacity="1"><g transform="translate(354.359941, 196.373554)"><g><path d="M 39.375 -8.1875 L 39.375 0 L 5.234375 0 L 5.234375 -44.09375 L 38.5625 -44.09375 L 38.5625 -35.90625 L 15.375 -35.90625 L 15.375 -26.328125 L 35.84375 -26.328125 L 35.84375 -18.390625 L 15.375 -18.390625 L 15.375 -8.1875 Z M 39.375 -8.1875 "/></g></g></g><g fill="#000000" fill-opacity="1"><g transform="translate(400.665204, 196.373554)"><g><path d="M 45.671875 -44.09375 L 45.671875 0 L 37.296875 0 L 15.3125 -26.78125 L 15.3125 0 L 5.234375 0 L 5.234375 -44.09375 L 13.671875 -44.09375 L 35.59375 -17.328125 L 35.59375 -44.09375 Z M 45.671875 -44.09375 "/></g></g></g><g fill="#000000" fill-opacity="1"><g transform="translate(455.601475, 196.373554)"><g><path d="M 5.234375 -44.09375 L 25.265625 -44.09375 C 30.046875 -44.09375 34.273438 -43.179688 37.953125 -41.359375 C 41.628906 -39.535156 44.484375 -36.960938 46.515625 -33.640625 C 48.554688 -30.328125 49.578125 -26.460938 49.578125 -22.046875 C 49.578125 -17.640625 48.554688 -13.773438 46.515625 -10.453125 C 44.484375 -7.140625 41.628906 -4.566406 37.953125 -2.734375 C 34.273438 -0.910156 30.046875 0 25.265625 0 L 5.234375 0 Z M 24.765625 -8.375 C 29.171875 -8.375 32.6875 -9.601562 35.3125 -12.0625 C 37.9375 -14.519531 39.25 -17.847656 39.25 -22.046875 C 39.25 -26.242188 37.9375 -29.570312 35.3125 -32.03125 C 32.6875 -34.488281 29.171875 -35.71875 24.765625 -35.71875 L 15.4375 -35.71875 L 15.4375 -8.375 Z M 24.765625 -8.375 "/></g></g></g><g fill="#000000" fill-opacity="1"><g transform="translate(511.671764, 196.373554)"><g><path d="M 39.375 -8.1875 L 39.375 0 L 5.234375 0 L 5.234375 -44.09375 L 38.5625 -44.09375 L 38.5625 -35.90625 L 15.375 -35.90625 L 15.375 -26.328125 L 35.84375 -26.328125 L 35.84375 -18.390625 L 15.375 -18.390625 L 15.375 -8.1875 Z M 24.703125 -56.765625 L 35.28125 -56.765625 L 23.875 -47.6875 L 16.1875 -47.6875 Z M 24.703125 -56.765625 "/></g></g></g><g fill="#000000" fill-opacity="1"><g transform="translate(557.977027, 196.373554)"><g><path d="M 39.375 -8.1875 L 39.375 0 L 5.234375 0 L 5.234375 -44.09375 L 38.5625 -44.09375 L 38.5625 -35.90625 L 15.375 -35.90625 L 15.375 -26.328125 L 35.84375 -26.328125 L 35.84375 -18.390625 L 15.375 -18.390625 L 15.375 -8.1875 Z M 39.375 -8.1875 "/></g></g></g><g fill="#000000" fill-opacity="1"><g transform="translate(604.28229, 196.373554)"><g><path d="M 45.671875 -44.09375 L 45.671875 0 L 37.296875 0 L 15.3125 -26.78125 L 15.3125 0 L 5.234375 0 L 5.234375 -44.09375 L 13.671875 -44.09375 L 35.59375 -17.328125 L 35.59375 -44.09375 Z M 45.671875 -44.09375 "/></g></g></g><g fill="#000000" fill-opacity="1"><g transform="translate(659.21855, 196.373554)"><g><path d="M 45.671875 -44.09375 L 45.671875 0 L 37.296875 0 L 15.3125 -26.78125 L 15.3125 0 L 5.234375 0 L 5.234375 -44.09375 L 13.671875 -44.09375 L 35.59375 -17.328125 L 35.59375 -44.09375 Z M 45.671875 -44.09375 "/></g></g></g><g fill="#000000" fill-opacity="1"><g transform="translate(714.154809, 196.373554)"><g><path d="M 39.375 -8.1875 L 39.375 0 L 5.234375 0 L 5.234375 -44.09375 L 38.5625 -44.09375 L 38.5625 -35.90625 L 15.375 -35.90625 L 15.375 -26.328125 L 35.84375 -26.328125 L 35.84375 -18.390625 L 15.375 -18.390625 L 15.375 -8.1875 Z M 39.375 -8.1875 "/></g></g></g><g transform="matrix(1, 0, 0, 1, 304, 100)"><g clip-path="url(#5f81805f31)"><g fill="#000000" fill-opacity="1"><g transform="translate(0.274671, 36.106363)"><g><path d="M 12.046875 0.46875 C 9.921875 0.46875 7.863281 0.179688 5.875 -0.390625 C 3.882812 -0.972656 2.285156 -1.726562 1.078125 -2.65625 L 3.203125 -7.359375 C 4.347656 -6.503906 5.71875 -5.820312 7.3125 -5.3125 C 8.90625 -4.800781 10.5 -4.546875 12.09375 -4.546875 C 13.863281 -4.546875 15.171875 -4.804688 16.015625 -5.328125 C 16.859375 -5.859375 17.28125 -6.5625 17.28125 -7.4375 C 17.28125 -8.070312 17.03125 -8.597656 16.53125 -9.015625 C 16.03125 -9.441406 15.390625 -9.785156 14.609375 -10.046875 C 13.828125 -10.304688 12.769531 -10.585938 11.4375 -10.890625 C 9.382812 -11.378906 7.703125 -11.867188 6.390625 -12.359375 C 5.078125 -12.847656 3.953125 -13.628906 3.015625 -14.703125 C 2.078125 -15.785156 1.609375 -17.222656 1.609375 -19.015625 C 1.609375 -20.585938 2.03125 -22.003906 2.875 -23.265625 C 3.726562 -24.535156 5.007812 -25.539062 6.71875 -26.28125 C 8.425781 -27.03125 10.507812 -27.40625 12.96875 -27.40625 C 14.6875 -27.40625 16.367188 -27.203125 18.015625 -26.796875 C 19.660156 -26.390625 21.097656 -25.800781 22.328125 -25.03125 L 20.40625 -20.296875 C 17.914062 -21.703125 15.425781 -22.40625 12.9375 -22.40625 C 11.1875 -22.40625 9.894531 -22.125 9.0625 -21.5625 C 8.226562 -21 7.8125 -20.253906 7.8125 -19.328125 C 7.8125 -18.398438 8.289062 -17.710938 9.25 -17.265625 C 10.21875 -16.816406 11.691406 -16.375 13.671875 -15.9375 C 15.722656 -15.445312 17.398438 -14.957031 18.703125 -14.46875 C 20.015625 -13.988281 21.140625 -13.222656 22.078125 -12.171875 C 23.015625 -11.117188 23.484375 -9.691406 23.484375 -7.890625 C 23.484375 -6.347656 23.050781 -4.941406 22.1875 -3.671875 C 21.332031 -2.398438 20.046875 -1.390625 18.328125 -0.640625 C 16.609375 0.0976562 14.515625 0.46875 12.046875 0.46875 Z M 12.046875 0.46875 "/></g></g></g><g fill="#000000" fill-opacity="1"><g transform="translate(26.336172, 36.106363)"><g><path d="M 16.25 0.46875 C 13.445312 0.46875 10.921875 -0.132812 8.671875 -1.34375 C 6.429688 -2.550781 4.675781 -4.210938 3.40625 -6.328125 C 2.132812 -8.453125 1.5 -10.832031 1.5 -13.46875 C 1.5 -16.113281 2.132812 -18.492188 3.40625 -20.609375 C 4.675781 -22.734375 6.429688 -24.394531 8.671875 -25.59375 C 10.921875 -26.800781 13.445312 -27.40625 16.25 -27.40625 C 19.039062 -27.40625 21.550781 -26.800781 23.78125 -25.59375 C 26.019531 -24.394531 27.78125 -22.734375 29.0625 -20.609375 C 30.351562 -18.492188 31 -16.113281 31 -13.46875 C 31 -10.832031 30.351562 -8.453125 29.0625 -6.328125 C 27.78125 -4.210938 26.019531 -2.550781 23.78125 -1.34375 C 21.550781 -0.132812 19.039062 0.46875 16.25 0.46875 Z M 16.25 -4.84375 C 17.84375 -4.84375 19.28125 -5.207031 20.5625 -5.9375 C 21.84375 -6.675781 22.847656 -7.695312 23.578125 -9 C 24.304688 -10.3125 24.671875 -11.800781 24.671875 -13.46875 C 24.671875 -15.144531 24.304688 -16.632812 23.578125 -17.9375 C 22.847656 -19.25 21.84375 -20.269531 20.5625 -21 C 19.28125 -21.726562 17.84375 -22.09375 16.25 -22.09375 C 14.65625 -22.09375 13.21875 -21.726562 11.9375 -21 C 10.65625 -20.269531 9.644531 -19.25 8.90625 -17.9375 C 8.175781 -16.632812 7.8125 -15.144531 7.8125 -13.46875 C 7.8125 -11.800781 8.175781 -10.3125 8.90625 -9 C 9.644531 -7.695312 10.65625 -6.675781 11.9375 -5.9375 C 13.21875 -5.207031 14.65625 -4.84375 16.25 -4.84375 Z M 16.25 -4.84375 "/></g></g></g><g fill="#000000" fill-opacity="1"><g transform="translate(60.327688, 36.106363)"><g><path d="M 16.09375 0.46875 C 13.34375 0.46875 10.859375 -0.128906 8.640625 -1.328125 C 6.421875 -2.523438 4.675781 -4.179688 3.40625 -6.296875 C 2.132812 -8.410156 1.5 -10.800781 1.5 -13.46875 C 1.5 -16.144531 2.132812 -18.539062 3.40625 -20.65625 C 4.675781 -22.769531 6.421875 -24.421875 8.640625 -25.609375 C 10.859375 -26.804688 13.351562 -27.40625 16.125 -27.40625 C 18.46875 -27.40625 20.582031 -26.992188 22.46875 -26.171875 C 24.351562 -25.359375 25.9375 -24.179688 27.21875 -22.640625 L 23.21875 -18.9375 C 21.394531 -21.039062 19.132812 -22.09375 16.4375 -22.09375 C 14.769531 -22.09375 13.28125 -21.726562 11.96875 -21 C 10.664062 -20.269531 9.644531 -19.25 8.90625 -17.9375 C 8.175781 -16.632812 7.8125 -15.144531 7.8125 -13.46875 C 7.8125 -11.800781 8.175781 -10.3125 8.90625 -9 C 9.644531 -7.695312 10.664062 -6.675781 11.96875 -5.9375 C 13.28125 -5.207031 14.769531 -4.84375 16.4375 -4.84375 C 19.132812 -4.84375 21.394531 -5.910156 23.21875 -8.046875 L 27.21875 -4.34375 C 25.9375 -2.78125 24.34375 -1.585938 22.4375 -0.765625 C 20.539062 0.0546875 18.425781 0.46875 16.09375 0.46875 Z M 16.09375 0.46875 "/></g></g></g><g fill="#000000" fill-opacity="1"><g transform="translate(90.046223, 36.106363)"><g><path d="M 3.203125 -26.953125 L 9.4375 -26.953125 L 9.4375 0 L 3.203125 0 Z M 3.203125 -26.953125 "/></g></g></g><g fill="#000000" fill-opacity="1"><g transform="translate(104.17421, 36.106363)"><g><path d="M 24.0625 -5 L 24.0625 0 L 3.203125 0 L 3.203125 -26.953125 L 23.5625 -26.953125 L 23.5625 -21.9375 L 9.390625 -21.9375 L 9.390625 -16.09375 L 21.90625 -16.09375 L 21.90625 -11.234375 L 9.390625 -11.234375 L 9.390625 -5 Z M 15.09375 -34.6875 L 21.5625 -34.6875 L 14.59375 -29.140625 L 9.90625 -29.140625 Z M 15.09375 -34.6875 "/></g></g></g><g fill="#000000" fill-opacity="1"><g transform="translate(131.506042, 36.106363)"><g><path d="M 8.78125 -21.875 L 0.15625 -21.875 L 0.15625 -26.953125 L 23.640625 -26.953125 L 23.640625 -21.875 L 15.015625 -21.875 L 15.015625 0 L 8.78125 0 Z M 8.78125 -21.875 "/></g></g></g><g fill="#000000" fill-opacity="1"><g transform="translate(156.797639, 36.106363)"><g><path d="M 24.0625 -5 L 24.0625 0 L 3.203125 0 L 3.203125 -26.953125 L 23.5625 -26.953125 L 23.5625 -21.9375 L 9.390625 -21.9375 L 9.390625 -16.09375 L 21.90625 -16.09375 L 21.90625 -11.234375 L 9.390625 -11.234375 L 9.390625 -5 Z M 15.09375 -34.6875 L 21.5625 -34.6875 L 14.59375 -29.140625 L 9.90625 -29.140625 Z M 15.09375 -34.6875 "/></g></g></g><g fill="#000000" fill-opacity="1"><g transform="translate(184.129471, 36.106363)"><g/></g></g><g fill="#000000" fill-opacity="1"><g transform="translate(196.525177, 36.106363)"><g><path d="M 3.203125 -26.953125 L 15.4375 -26.953125 C 18.363281 -26.953125 20.945312 -26.390625 23.1875 -25.265625 C 25.4375 -24.148438 27.179688 -22.578125 28.421875 -20.546875 C 29.671875 -18.523438 30.296875 -16.164062 30.296875 -13.46875 C 30.296875 -10.78125 29.671875 -8.421875 28.421875 -6.390625 C 27.179688 -4.359375 25.4375 -2.785156 23.1875 -1.671875 C 20.945312 -0.554688 18.363281 0 15.4375 0 L 3.203125 0 Z M 15.125 -5.125 C 17.820312 -5.125 19.972656 -5.875 21.578125 -7.375 C 23.179688 -8.875 23.984375 -10.90625 23.984375 -13.46875 C 23.984375 -16.039062 23.179688 -18.078125 21.578125 -19.578125 C 19.972656 -21.078125 17.820312 -21.828125 15.125 -21.828125 L 9.4375 -21.828125 L 9.4375 -5.125 Z M 15.125 -5.125 "/></g></g></g><g fill="#000000" fill-opacity="1"><g transform="translate(229.823777, 36.106363)"><g><path d="M 24.0625 -5 L 24.0625 0 L 3.203125 0 L 3.203125 -26.953125 L 23.5625 -26.953125 L 23.5625 -21.9375 L 9.390625 -21.9375 L 9.390625 -16.09375 L 21.90625 -16.09375 L 21.90625 -11.234375 L 9.390625 -11.234375 L 9.390625 -5 Z M 24.0625 -5 "/></g></g></g><g fill="#000000" fill-opacity="1"><g transform="translate(257.155609, 36.106363)"><g/></g></g><g fill="#000000" fill-opacity="1"><g transform="translate(269.551315, 36.106363)"><g><path d="M 14.859375 -26.953125 C 17.242188 -26.953125 19.316406 -26.550781 21.078125 -25.75 C 22.835938 -24.957031 24.191406 -23.828125 25.140625 -22.359375 C 26.085938 -20.898438 26.5625 -19.171875 26.5625 -17.171875 C 26.5625 -15.191406 26.085938 -13.460938 25.140625 -11.984375 C 24.191406 -10.515625 22.835938 -9.390625 21.078125 -8.609375 C 19.316406 -7.828125 17.242188 -7.4375 14.859375 -7.4375 L 9.4375 -7.4375 L 9.4375 0 L 3.203125 0 L 3.203125 -26.953125 Z M 14.515625 -12.515625 C 16.390625 -12.515625 17.8125 -12.914062 18.78125 -13.71875 C 19.757812 -14.53125 20.25 -15.679688 20.25 -17.171875 C 20.25 -18.679688 19.757812 -19.84375 18.78125 -20.65625 C 17.8125 -21.46875 16.390625 -21.875 14.515625 -21.875 L 9.4375 -21.875 L 9.4375 -12.515625 Z M 14.515625 -12.515625 "/></g></g></g><g fill="#000000" fill-opacity="1"><g transform="translate(298.846373, 36.106363)"><g><path d="M 24.0625 -5 L 24.0625 0 L 3.203125 0 L 3.203125 -26.953125 L 23.5625 -26.953125 L 23.5625 -21.9375 L 9.390625 -21.9375 L 9.390625 -16.09375 L 21.90625 -16.09375 L 21.90625 -11.234375 L 9.390625 -11.234375 L 9.390625 -5 Z M 24.0625 -5 "/></g></g></g><g fill="#000000" fill-opacity="1"><g transform="translate(326.178206, 36.106363)"><g><path d="M 3.203125 -26.953125 L 9.4375 -26.953125 L 9.4375 0 L 3.203125 0 Z M 3.203125 -26.953125 "/></g></g></g><g fill="#000000" fill-opacity="1"><g transform="translate(340.306193, 36.106363)"><g><path d="M 27.90625 -26.953125 L 27.90625 0 L 22.796875 0 L 9.359375 -16.359375 L 9.359375 0 L 3.203125 0 L 3.203125 -26.953125 L 8.359375 -26.953125 L 21.75 -10.59375 L 21.75 -26.953125 Z M 27.90625 -26.953125 "/></g></g></g><g fill="#000000" fill-opacity="1"><g transform="translate(372.911895, 36.106363)"><g><path d="M 8.78125 -21.875 L 0.15625 -21.875 L 0.15625 -26.953125 L 23.640625 -26.953125 L 23.640625 -21.875 L 15.015625 -21.875 L 15.015625 0 L 8.78125 0 Z M 8.78125 -21.875 "/></g></g></g><g fill="#000000" fill-opacity="1"><g transform="translate(397.741521, 36.106363)"><g><path d="M 15.171875 0.46875 C 11.316406 0.46875 8.316406 -0.59375 6.171875 -2.71875 C 4.035156 -4.851562 2.96875 -7.898438 2.96875 -11.859375 L 2.96875 -26.953125 L 9.203125 -26.953125 L 9.203125 -12.09375 C 9.203125 -7.257812 11.203125 -4.84375 15.203125 -4.84375 C 17.160156 -4.84375 18.648438 -5.425781 19.671875 -6.59375 C 20.703125 -7.769531 21.21875 -9.601562 21.21875 -12.09375 L 21.21875 -26.953125 L 27.375 -26.953125 L 27.375 -11.859375 C 27.375 -7.898438 26.300781 -4.851562 24.15625 -2.71875 C 22.007812 -0.59375 19.015625 0.46875 15.171875 0.46875 Z M 15.171875 0.46875 "/></g></g></g><g fill="#000000" fill-opacity="1"><g transform="translate(429.577259, 36.106363)"><g><path d="M 20.359375 0 L 15.171875 -7.5 L 9.4375 -7.5 L 9.4375 0 L 3.203125 0 L 3.203125 -26.953125 L 14.859375 -26.953125 C 17.242188 -26.953125 19.316406 -26.550781 21.078125 -25.75 C 22.835938 -24.957031 24.191406 -23.828125 25.140625 -22.359375 C 26.085938 -20.898438 26.5625 -19.171875 26.5625 -17.171875 C 26.5625 -15.171875 26.078125 -13.441406 25.109375 -11.984375 C 24.148438 -10.535156 22.785156 -9.425781 21.015625 -8.65625 L 27.0625 0 Z M 20.25 -17.171875 C 20.25 -18.679688 19.757812 -19.84375 18.78125 -20.65625 C 17.8125 -21.46875 16.390625 -21.875 14.515625 -21.875 L 9.4375 -21.875 L 9.4375 -12.46875 L 14.515625 -12.46875 C 16.390625 -12.46875 17.8125 -12.878906 18.78125 -13.703125 C 19.757812 -14.523438 20.25 -15.679688 20.25 -17.171875 Z M 20.25 -17.171875 "/></g></g></g><g fill="#000000" fill-opacity="1"><g transform="translate(459.372803, 36.106363)"><g><path d="M 24.0625 -5 L 24.0625 0 L 3.203125 0 L 3.203125 -26.953125 L 23.5625 -26.953125 L 23.5625 -21.9375 L 9.390625 -21.9375 L 9.390625 -16.09375 L 21.90625 -16.09375 L 21.90625 -11.234375 L 9.390625 -11.234375 L 9.390625 -5 Z M 24.0625 -5 "/></g></g></g></g></g></svg>
